<?xml version="1.0" encoding="UTF-8"?>
<!DOCTYPE svg PUBLIC "-//W3C//DTD SVG 1.1//EN" "http://www.w3.org/Graphics/SVG/1.1/DTD/svg11.dtd">
<!-- Creator: CorelDRAW -->
<svg xmlns="http://www.w3.org/2000/svg" xml:space="preserve" width="22.325mm" height="26.318mm" shape-rendering="geometricPrecision" text-rendering="geometricPrecision" image-rendering="optimizeQuality" fill-rule="evenodd" clip-rule="evenodd"
viewBox="0 0 22.325 26.318"
 xmlns:xlink="http://www.w3.org/1999/xlink">
 <g id="Capa_x0020_1">
  <metadata id="CorelCorpID_0Corel-Layer"/>
  <path fill="#E64242" fill-rule="nonzero" d="M18.8109 5.4161c-1.1375,-1.1374 -3.6011,-0.6634 -6.341,0.9852 2.1194,-1.0807 3.9691,-1.2959 4.8887,-0.3765 1.4002,1.4002 0.1695,4.9574 -2.746,8.3416 -0.18,0.1935 -0.3647,0.3857 -0.5552,0.5766 -3.7106,3.7109 -7.9648,5.4726 -9.5011,3.936 -1.1069,-1.1065 -0.5036,-3.6199 1.3044,-6.3251 -1.2834,1.7291 -2.1465,3.4289 -2.4873,4.8494 0.0201,-0.1991 0.0533,-0.4062 0.1002,-0.6206 -0.5351,1.6144 -0.4891,2.9519 0.2651,3.7058 1.7238,1.7241 6.4954,-0.2526 10.6572,-4.4148 4.1619,-4.162 6.1388,-8.9336 4.415,-10.6576z"/>
  <path fill="#E64242" fill-rule="nonzero" d="M14.3959 8.9959c-4.1618,-4.162 -8.9334,-6.1387 -10.6572,-4.4149 -1.3583,1.358 -0.4198,4.6063 2.0733,7.9584 0.0889,0.1195 0.1358,0.0259 0.1145,-0.0112 -1.6987,-2.5931 -2.3073,-5.0476 -1.1826,-6.1724 1.5488,-1.5492 5.6253,0.0161 9.1052,3.4957 3.4797,3.4799 5.0448,7.5561 3.4958,9.1048 -1.0102,1.0107 -2.9898,0.7554 -5.2839,-0.551 2.9428,1.9052 5.542,2.4562 6.7499,1.2479 1.7241,-1.7238 -0.2525,-6.4951 -4.415,-10.6573z"/>
  <path fill="#848688" fill-rule="nonzero" d="M14.0819 12.5351c0,1.1295 -0.9158,2.0455 -2.0454,2.0455 -1.1299,0 -2.0457,-0.916 -2.0457,-2.0455 0,-1.1301 0.9158,-2.0461 2.0457,-2.0461 1.1296,0 2.0454,0.916 2.0454,2.0461z"/>
 </g>
</svg>
